<?xml version="1.0" encoding="UTF-8" standalone="no"?>
<svg
   xmlns:i="http://ns.adobe.com/AdobeIllustrator/10.0/"
   xmlns:dc="http://purl.org/dc/elements/1.1/"
   xmlns:cc="http://creativecommons.org/ns#"
   xmlns:rdf="http://www.w3.org/1999/02/22-rdf-syntax-ns#"
   xmlns:svg="http://www.w3.org/2000/svg"
   xmlns="http://www.w3.org/2000/svg"
   xmlns:sodipodi="http://sodipodi.sourceforge.net/DTD/sodipodi-0.dtd"
   xmlns:inkscape="http://www.inkscape.org/namespaces/inkscape"
   version="1.1"
   x="0px"
   y="px"
   viewBox="0 0 100 32.280998"
   enable-background="new 0 0 100 100"
   xml:space="preserve"
   id="svg2"
   inkscape:version="0.91 r13725"
   sodipodi:docname="hill-landscape.svg"
   width="100"
   height="32.280998"><metadata
     id="metadata14"><rdf:RDF><cc:Work
         rdf:about=""><dc:format>image/svg+xml</dc:format><dc:type
           rdf:resource="http://purl.org/dc/dcmitype/StillImage" /><dc:title></dc:title></cc:Work></rdf:RDF></metadata><defs
     id="defs12" /><sodipodi:namedview
     pagecolor="#ffffff"
     bordercolor="#666666"
     borderopacity="1"
     objecttolerance="10"
     gridtolerance="10"
     guidetolerance="10"
     inkscape:pageopacity="0"
     inkscape:pageshadow="2"
     inkscape:window-width="1366"
     inkscape:window-height="714"
     id="namedview10"
     showgrid="false"
     inkscape:zoom="1.888"
     inkscape:cx="-19.276593"
     inkscape:cy="-30.219"
     inkscape:window-x="0"
     inkscape:window-y="0"
     inkscape:window-maximized="1"
     inkscape:current-layer="svg2"
     fit-margin-top="0"
     fit-margin-left="0"
     fit-margin-right="0"
     fit-margin-bottom="0" /><switch
     id="switch4"
     transform="translate(0.109,-43.719)"><g
       i:extraneous="self"
       id="g6"><path
         d="m -0.109,76 100,0 L 77.2,50.898 C 76.694,50.341 75.731,50.117 75.059,50.452 L 53.685,61.084 C 53.012,61.42 52.007,61.27 51.451,60.765 L 48.172,57.786 C 47.615,57.281 45.984,57.094 45.284,57.374 L 16,68.876 l 0,-3.84 c 1,0.039 1.104,0.065 1.359,0.065 1.83,0 3.724,-1.031 4.526,-2.544 1.815,-0.491 3.305,-2.145 3.305,-4.116 0,-0.66 -0.078,-1.283 -0.345,-1.841 1.049,-0.859 1.757,-2.162 1.757,-3.624 0,-2.289 -1.627,-4.191 -3.799,-4.597 -0.569,-0.716 -1.438,-1.176 -2.423,-1.176 -0.125,0 -0.244,0.01 -0.365,0.024 -0.482,-2.012 -2.284,-3.508 -4.443,-3.508 -1.333,0 -2.526,0.573 -3.363,1.482 -0.442,-0.161 -0.918,-0.252 -1.416,-0.252 -2.302,0 -4.167,1.865 -4.167,4.167 0,0.443 0.071,0.869 0.198,1.269 -1.648,0.766 -2.794,2.431 -2.794,4.367 0,1.286 0.508,2.453 1.33,3.316 -0.151,0.43 -0.237,0.89 -0.237,1.37 0,2.287 1.854,4.141 4.141,4.141 0.583,0 0.76,-0.121 1.262,-0.338 C 11.508,64.283 13,64.966 14,65.079 L 14,69.862 -0.109,76 Z"
         id="path8"
         inkscape:connector-curvature="0" /></g></switch></svg>